<svg width="727" height="712" viewBox="0 0 727 712" fill="none" xmlns="http://www.w3.org/2000/svg">
<path d="M340.167 173.989C256.295 116.719 122.841 181.625 132.167 318.172C148.069 550.989 310.303 578.033 452.166 550.989C637.802 515.601 680.631 303.235 509.221 318.172C371.66 330.159 445.007 245.577 340.167 173.989Z" fill="#FCDDD4"/>
<mask id="mask0" mask-type="alpha" maskUnits="userSpaceOnUse" x="75" y="122" width="584" height="501">
<path d="M340.165 173.989C256.293 116.719 122.839 181.625 132.165 318.172C148.067 550.99 310.301 578.033 452.164 550.99C637.8 515.602 680.629 303.235 509.219 318.172C371.658 330.159 445.005 245.577 340.165 173.989Z" fill="#FCDDD4"/>
</mask>
<g mask="url(#mask0)">
<path opacity="0.7" d="M107.237 189.076C134.868 176.944 200.045 159.462 239.705 186.587C289.281 220.493 135.917 264.327 183.113 290.124C230.31 315.921 318.502 207.529 352.588 226.16C386.675 244.792 265.856 294.499 301.01 320.523C336.164 346.546 439.265 232.685 481.934 254.306C524.602 275.926 379.929 338.127 448.101 375.389" stroke="url(#paint0_linear)" stroke-width="2"/>
<path d="M277.166 577.989C277.166 550.375 299.552 527.989 327.166 527.989L594.166 527.989L594.166 637.989L277.166 637.989L277.166 577.989Z" fill="#F58A6B"/>
</g>
<path fill-rule="evenodd" clip-rule="evenodd" d="M164.533 332.614C166.17 333.961 167.45 335.404 168.459 336.792L171.091 333.28C169.843 331.956 168.627 330.751 167.173 329.61L164.533 332.614Z" fill="#3E1A0B"/>
<path fill-rule="evenodd" clip-rule="evenodd" d="M173.066 338.746C171.587 336.081 168.283 335.181 165.649 336.779L162.159 338.99C159.525 340.589 158.688 344.13 160.049 346.826C161.528 349.491 164.832 350.392 167.465 348.793L170.956 346.583C173.589 344.984 174.578 341.53 173.066 338.746Z" fill="#F69E9F"/>
<path fill-rule="evenodd" clip-rule="evenodd" d="M314.265 227.183L252.437 237.372L249.144 217.462C248.816 215.764 247.211 214.536 245.362 214.776L196.352 222.806C194.654 223.133 193.425 224.738 193.665 226.587L196.959 246.497L138.679 256.118C137.218 256.381 136.077 257.835 136.34 259.295L176.232 502.45C176.495 503.91 177.949 505.051 179.41 504.787L355.028 475.971C356.488 475.707 357.63 474.254 357.366 472.794L317.356 229.671C317.298 228.028 315.757 227.038 314.265 227.183Z" fill="url(#paint1_linear)"/>
<path fill-rule="evenodd" clip-rule="evenodd" d="M305.685 257.986L151.353 283.394C150.012 283.625 149.077 284.897 149.309 286.238L183.867 496.635C184.099 497.976 185.37 498.911 186.712 498.679L341.043 473.271C342.384 473.039 343.32 471.768 343.088 470.427L308.529 260.03C308.297 258.689 307.026 257.754 305.685 257.986Z" fill="#F36F49"/>
<path fill-rule="evenodd" clip-rule="evenodd" d="M305.21 250.529L154.632 275.186C153.291 275.418 152.475 276.657 152.706 277.998L186.434 483.388C186.666 484.729 187.905 485.545 189.246 485.313L339.911 460.505C341.252 460.273 342.068 459.034 341.837 457.693L308.109 252.303C307.79 251.113 306.551 250.297 305.21 250.529Z" fill="#FAFBFC"/>
<path opacity="0.8" d="M299.68 259.409L162.698 281.954C161.952 282.027 161.301 282.456 160.953 283.06C160.604 283.663 160.407 284.354 160.479 285.1L191.608 474.604C191.68 475.35 192.11 476 192.714 476.348C193.317 476.697 194.008 476.894 194.754 476.822L331.768 454.396C332.514 454.324 333.164 453.894 333.513 453.291C333.861 452.687 334.059 451.996 333.987 451.25L302.826 261.628C302.753 260.882 302.324 260.231 301.72 259.883C301.117 259.534 300.426 259.337 299.68 259.409ZM332.884 451.418C333.011 451.894 332.869 452.315 332.575 452.649C332.282 452.983 331.957 453.197 331.481 453.325L194.618 475.838C194.142 475.966 193.721 475.823 193.387 475.53C193.054 475.237 192.839 474.912 192.711 474.436L161.55 284.813C161.423 284.337 161.565 283.916 161.858 283.582C162.152 283.249 162.477 283.034 162.953 282.906L299.935 260.361C300.411 260.234 300.832 260.376 301.166 260.669C301.499 260.963 301.714 261.288 301.842 261.764L332.884 451.418Z" fill="#F58A6B"/>
<path fill-rule="evenodd" clip-rule="evenodd" d="M221.637 224.322C218.717 224.849 216.759 227.542 217.286 230.463C217.814 233.383 220.507 235.34 223.428 234.812C226.348 234.285 228.306 231.592 227.779 228.672C227.283 225.871 224.558 223.794 221.637 224.322Z" fill="#FAFBFC"/>
<path fill-rule="evenodd" clip-rule="evenodd" d="M262.76 232.565L185.757 245.161C184.058 245.489 182.83 247.094 183.07 248.943L186.659 270.432C186.986 272.13 188.591 273.358 190.441 273.117L267.444 260.521C269.142 260.193 270.371 258.588 270.13 256.739L266.629 235.1C266.182 233.434 264.458 232.237 262.76 232.565Z" fill="#F58A6B"/>
<path opacity="0.8" fill-rule="evenodd" clip-rule="evenodd" d="M221.317 242.649L191.983 247.448C190.641 247.68 189.706 248.951 189.938 250.292L192.727 266.892C192.959 268.233 194.23 269.168 195.572 268.937L224.906 264.138C226.248 263.906 227.183 262.635 226.951 261.294L224.162 244.693C223.93 243.352 222.659 242.417 221.317 242.649Z" fill="#F36F49"/>
<path opacity="0.2" d="M217.227 296.957L217.566 299.024L298.19 285.771L297.85 283.704L217.227 296.957Z" fill="#EE4D47"/>
<path opacity="0.2" d="M218.076 302.188L218.416 304.255L299.039 291.002L298.699 288.935L218.076 302.188Z" fill="#EE4D47"/>
<path opacity="0.2" d="M259.137 300.642L259.477 302.708L299.849 296.072L299.509 294.005L259.137 300.642Z" fill="#EE4D47"/>
<path opacity="0.2" d="M218.923 307.28L219.263 309.347L257.081 303.13L256.742 301.063L218.923 307.28Z" fill="#EE4D47"/>
<path opacity="0.2" d="M222.787 331.143L223.127 333.21L303.75 319.957L303.41 317.89L222.787 331.143Z" fill="#EE4D47"/>
<path opacity="0.2" d="M223.637 336.375L223.977 338.441L304.6 325.188L304.26 323.121L223.637 336.375Z" fill="#EE4D47"/>
<path opacity="0.2" d="M264.821 334.807L265.161 336.874L305.533 330.238L305.194 328.171L264.821 334.807Z" fill="#EE4D47"/>
<path opacity="0.2" d="M224.486 341.465L224.825 343.532L262.644 337.315L262.304 335.249L224.486 341.465Z" fill="#EE4D47"/>
<path opacity="0.2" d="M227.844 361.802L228.184 363.869L308.807 350.616L308.467 348.549L227.844 361.802Z" fill="#EE4D47"/>
<path opacity="0.2" d="M228.694 367.034L229.033 369.101L309.656 355.847L309.317 353.781L228.694 367.034Z" fill="#EE4D47"/>
<path opacity="0.2" d="M269.877 365.467L270.217 367.534L310.589 360.897L310.249 358.83L269.877 365.467Z" fill="#EE4D47"/>
<path opacity="0.2" d="M229.54 372.125L229.88 374.192L267.699 367.976L267.359 365.909L229.54 372.125Z" fill="#EE4D47"/>
<path opacity="0.2" d="M233.014 393.382L233.354 395.449L313.977 382.196L313.637 380.129L233.014 393.382Z" fill="#EE4D47"/>
<path opacity="0.2" d="M233.885 398.736L234.225 400.803L314.848 387.55L314.508 385.483L233.885 398.736Z" fill="#EE4D47"/>
<path opacity="0.2" d="M275.067 397.169L275.406 399.236L315.779 392.599L315.439 390.532L275.067 397.169Z" fill="#EE4D47"/>
<path opacity="0.2" d="M234.731 403.827L235.07 405.894L272.889 399.678L272.549 397.611L234.731 403.827Z" fill="#EE4D47"/>
<path opacity="0.2" d="M238.105 424.76L238.444 426.827L319.067 413.574L318.728 411.507L238.105 424.76Z" fill="#EE4D47"/>
<path opacity="0.2" d="M238.954 429.992L239.294 432.059L319.917 418.805L319.577 416.738L238.954 429.992Z" fill="#EE4D47"/>
<path opacity="0.2" d="M280.138 428.424L280.478 430.491L320.85 423.855L320.51 421.788L280.138 428.424Z" fill="#EE4D47"/>
<path opacity="0.2" d="M239.924 435.063L240.264 437.13L278.082 430.913L277.743 428.847L239.924 435.063Z" fill="#EE4D47"/>
<path opacity="0.2" d="M179.187 297.308L178.202 297.444L178.338 298.428L181.368 316.877L181.504 317.861L182.489 317.725L202.283 314.462L203.267 314.326L203.131 313.342L200.101 294.893L199.965 293.909L198.981 294.045L179.187 297.308ZM201.058 312.75L183.082 315.653L180.292 299.052L198.15 296.181L201.058 312.75Z" fill="#EE4D47"/>
<path opacity="0.2" d="M184.823 332.152L183.839 332.288L184.094 333.24L187.124 351.69L187.26 352.674L188.244 352.537L208.039 349.275L209.023 349.138L208.887 348.154L205.857 329.705L205.721 328.721L204.737 328.857L184.823 332.152ZM206.695 347.594L188.837 350.465L186.048 333.865L203.906 330.993L206.695 347.594Z" fill="#EE4D47"/>
<path opacity="0.2" d="M190.315 365.504L189.331 365.64L189.467 366.624L192.497 385.073L192.633 386.057L193.617 385.921L213.412 382.658L214.396 382.522L214.26 381.538L211.23 363.089L211.094 362.105L210.11 362.241L190.315 365.504ZM212.187 380.945L194.329 383.817L191.54 367.216L209.398 364.345L212.187 380.945Z" fill="#EE4D47"/>
<path opacity="0.2" d="M195.871 399.094L194.887 399.23L195.023 400.214L198.085 418.783L198.221 419.767L199.205 419.631L218.999 416.368L219.984 416.232L219.848 415.248L216.818 396.798L216.682 395.814L215.697 395.95L195.871 399.094ZM217.743 414.536L199.885 417.408L197.096 400.807L214.954 397.935L217.743 414.536Z" fill="#EE4D47"/>
<path opacity="0.2" d="M201.228 431.462L200.243 431.598L200.379 432.582L203.409 451.032L203.545 452.016L204.53 451.88L224.324 448.617L225.308 448.481L225.172 447.497L222.142 429.047L222.006 428.063L221.022 428.199L201.228 431.462ZM223.068 446.785L205.21 449.657L202.42 433.056L220.278 430.184L223.068 446.785Z" fill="#EE4D47"/>
<path d="M191.502 306.126L181.175 299.964L180.01 301.807L191.361 308.46L192.267 308.982L192.79 308.077L206.759 285.455L204.948 284.41L191.502 306.126Z" fill="#EE4D47"/>
<path d="M197.394 341.922L187.067 335.76L185.902 337.603L197.254 344.256L198.127 344.659L198.682 343.873L212.619 321.132L210.808 320.087L197.394 341.922Z" fill="#F58A6B"/>
<path d="M208.673 410.206L198.227 404.076L197.181 405.887L208.414 412.571L209.319 413.094L209.842 412.189L223.931 389.535L222.088 388.37L208.673 410.206Z" fill="#F58A6B"/>
<path fill-rule="evenodd" clip-rule="evenodd" d="M179.272 516.177C178.2 516.464 177.59 517.52 177.877 518.591C178.164 519.662 179.221 520.272 180.292 519.985C181.364 519.698 181.974 518.642 181.687 517.571C181.4 516.499 180.343 515.89 179.272 516.177Z" fill="#FAFBFC"/>
<path d="M208.662 507.776C209.407 507.441 209.739 506.566 209.405 505.821C209.07 505.077 208.195 504.744 207.45 505.079C206.705 505.413 206.372 506.289 206.707 507.034C207.041 507.778 207.917 508.111 208.662 507.776Z" fill="#FAFBFC"/>
<path d="M249.446 495.715C250.038 495.556 250.389 494.948 250.23 494.357C250.072 493.765 249.464 493.414 248.872 493.573C248.28 493.731 247.929 494.339 248.088 494.931C248.246 495.522 248.854 495.873 249.446 495.715Z" fill="#FAFBFC"/>
<path fill-rule="evenodd" clip-rule="evenodd" d="M270.661 491.561C269.708 491.816 269.185 492.722 269.441 493.674C269.696 494.626 270.601 495.149 271.554 494.894C272.506 494.638 273.029 493.733 272.774 492.781C272.55 491.948 271.613 491.306 270.661 491.561Z" fill="#FAFBFC"/>
<path fill-rule="evenodd" clip-rule="evenodd" d="M302.914 484.322C302.556 484.418 302.382 484.72 302.478 485.077C302.573 485.434 302.875 485.608 303.232 485.512C303.59 485.417 303.764 485.115 303.668 484.758C303.692 484.369 303.271 484.227 302.914 484.322Z" fill="#FAFBFC"/>
<path fill-rule="evenodd" clip-rule="evenodd" d="M369.539 462.516C368.944 462.675 368.714 463.247 368.842 463.723C369.001 464.318 369.573 464.548 370.049 464.42C370.645 464.26 370.874 463.689 370.747 463.213C370.738 462.705 370.134 462.356 369.539 462.516Z" fill="#FAFBFC"/>
<path d="M480.646 270.989C480.646 259.944 471.691 250.989 460.646 250.989H385.166C374.121 250.989 365.166 259.944 365.166 270.989V281.392C365.166 292.438 374.12 301.392 385.166 301.392H480.646V270.989Z" fill="white"/>
<circle r="3.82804" transform="matrix(-1 0 0 1 454.487 276.51)" fill="#F4A984"/>
<circle r="3.82804" transform="matrix(-1 0 0 1 438.536 276.51)" fill="#F4A984"/>
<circle r="3.82804" transform="matrix(-1 0 0 1 422.586 276.51)" fill="#F4A984"/>
<circle r="3.82804" transform="matrix(-1 0 0 1 406.636 276.51)" fill="#F4A984"/>
<circle r="3.82804" transform="matrix(-1 0 0 1 390.686 276.51)" fill="#F4A984"/>
<path d="M331.166 438.489C287.566 438.489 309.666 375.489 326.166 343.989C334.999 337.323 356.666 323.889 372.666 323.489C388.666 323.089 398.666 342.989 401.666 352.989C399.833 353.156 397.966 360.789 405.166 389.989C412.366 419.189 408.833 434.489 406.166 438.489H331.166Z" fill="#402B2B"/>
<path d="M376.765 423.53C372.653 416.341 375.737 405.215 375.737 405.215L363.057 407.782L350.377 405.215C350.377 405.215 351.919 410.521 351.405 416.341C355.86 421.476 366.142 431.061 376.765 423.53Z" fill="url(#paint2_linear)"/>
<path d="M374.963 409.223C372.188 410.894 368.681 412.442 364.756 413.629C359.832 415.118 355.141 415.769 351.458 415.629C351.795 410.095 350.377 405.215 350.377 405.215L363.057 407.782L375.737 405.215C375.737 405.215 375.29 406.828 374.963 409.223Z" fill="url(#paint3_linear)" style="mix-blend-mode:multiply"/>
<path d="M332.042 433.629C339.41 440.133 353.975 454.34 363.228 454.34C372.482 454.34 388.932 440.818 396.3 434.314C392.701 432.944 381.735 428.665 379.164 426.44C378.308 425.584 377.451 424.557 376.937 423.53C366.313 431.061 356.032 421.476 351.576 416.17C351.234 419.935 350.206 423.701 347.293 426.269C344.379 428.665 335.469 432.26 332.042 433.629Z" fill="url(#paint4_linear)"/>
<path d="M397.942 366.36C396.742 364.134 394.858 363.792 393.658 364.134C393.658 364.134 390.231 353.18 387.832 345.135C379.778 341.369 372.239 338.117 363.157 337.432V337.261C361.786 337.261 359.387 337.261 358.016 337.261C352.362 337.432 346.707 337.603 341.224 338.63C339.853 338.972 338.482 339.315 337.111 339.315C335.398 348.387 332.485 364.306 331.285 364.134H331.114C330.942 364.134 330.942 364.134 330.771 363.963C329.572 363.621 328.201 363.963 327.001 366.017C324.945 369.783 327.001 377.314 329.743 379.54C331.114 380.567 332.313 381.422 333.17 381.936C334.541 388.783 336.94 395.287 340.538 399.224C349.963 409.323 358.702 411.548 361.101 411.891C361.272 411.891 361.615 411.891 361.786 411.891C361.786 411.891 361.958 411.891 362.129 411.891C363.842 411.719 373.267 410.008 383.377 399.053C386.975 395.287 389.546 392.548 391.088 382.449C392.116 381.936 393.144 381.08 394.858 379.711C397.942 377.657 399.998 370.125 397.942 366.36Z" fill="url(#paint5_linear)"/>
<path d="M362.902 375.989C362.902 375.989 363.034 379.846 361.991 381.114C360.948 382.383 358.969 383.612 358.806 384.56C358.615 385.328 359.443 386.677 360.888 387.007C362.334 387.338 362.568 387.855 362.568 387.855C362.568 387.855 359.901 388.637 358.233 386.864C356.565 385.092 357.827 383.235 359.049 382.123C360.271 381.011 360.82 380.557 361.342 379.923C362.015 379.265 362.902 375.989 362.902 375.989Z" fill="#D87C60"/>
<path d="M373.232 392.989H352.53C351.855 392.989 351.378 393.644 351.649 394.264C353.109 397.598 356.69 402.489 362.666 402.489C368.617 402.489 372.45 397.638 374.095 394.304C374.404 393.681 373.928 392.989 373.232 392.989Z" fill="#D87C60"/>
<path fill-rule="evenodd" clip-rule="evenodd" d="M373.142 395.989H352.533C352.181 395.391 351.887 394.807 351.65 394.264C351.379 393.644 351.855 392.989 352.531 392.989H373.232C373.928 392.989 374.404 393.681 374.096 394.304C373.833 394.836 373.515 395.406 373.142 395.989Z" fill="white"/>
<path d="M382.764 324.937C408.296 328.189 402.298 359.342 397.329 364.819L393.666 370.989C391.833 367.823 388.066 359.089 387.666 349.489C383.833 351.989 372.366 356.989 357.166 356.989C338.166 356.989 332.958 360.134 331.166 368.989C326.711 359.062 323.647 338.973 334.613 327.675C349.692 311.928 372.482 308.162 382.764 324.937Z" fill="#402B2B"/>
<path d="M331.185 368.927L332.042 376.287C332.042 376.287 329.471 374.918 328.957 371.495C328.786 369.441 329.643 368.071 331.185 368.927Z" fill="#ED8A40"/>
<path d="M393.385 368.927L392.528 376.287C392.528 376.287 395.099 374.918 395.613 371.495C395.784 369.441 395.099 368.071 393.385 368.927Z" fill="#ED8A40"/>
<path d="M379.851 377.25C379.851 378.791 378.652 380.16 376.938 380.16C375.396 380.16 374.025 378.962 374.025 377.25C374.025 375.71 375.225 374.34 376.938 374.34C378.652 374.34 379.851 375.71 379.851 377.25Z" fill="#402B2B"/>
<path d="M349.35 380.16C350.958 380.16 352.263 378.857 352.263 377.25C352.263 375.643 350.958 374.34 349.35 374.34C347.741 374.34 346.437 375.643 346.437 377.25C346.437 378.857 347.741 380.16 349.35 380.16Z" fill="#402B2B"/>
<path d="M341.707 371.85C342.956 370.488 346.612 367.763 351.244 367.763" stroke="#402B2B" stroke-width="2"/>
<path d="M374.746 367.88C376.593 367.799 381.105 368.458 384.381 371.733" stroke="#402B2B" stroke-width="2"/>
<path d="M424.231 472.485C424.916 453.998 419.262 443.044 410.694 438.422C402.126 433.8 381.907 427.981 381.221 427.81L362.886 442.359L345.408 427.81C344.723 427.981 323.989 433.8 315.593 438.422C307.025 443.044 301.37 453.998 302.056 472.485C302.57 487.377 301.542 510.827 301.713 527.944H424.745C424.745 510.827 423.717 487.377 424.231 472.485Z" fill="url(#paint6_linear)"/>
<path d="M372.996 434.143L368.198 431.918L362.714 442.017L357.231 431.918L352.262 434.143L359.459 445.782V527.944H366.141V445.269L372.996 434.143Z" fill="#EE4D47" fill-opacity="0.29" style="mix-blend-mode:multiply"/>
<path d="M351.405 416.17C351.234 421.134 358.26 433.972 358.26 433.972L346.093 445.782L342.152 428.665C342.152 428.665 346.093 418.224 351.405 416.17Z" fill="white"/>
<path d="M374.709 416.17C374.88 421.134 366.998 434.143 366.998 434.143L379.85 445.782L383.791 428.494C383.791 428.494 380.021 418.224 374.709 416.17Z" fill="white"/>
<path d="M364.773 448.692C364.773 449.719 363.916 450.575 362.888 450.575C361.86 450.575 361.003 449.719 361.003 448.692C361.003 447.665 361.86 446.809 362.888 446.809C363.916 446.809 364.773 447.665 364.773 448.692Z" fill="white"/>
<path d="M364.772 466.151C364.772 467.178 363.915 468.034 362.887 468.034C361.859 468.034 361.002 467.178 361.002 466.151C361.002 465.124 361.859 464.269 362.887 464.269C363.915 464.269 364.772 464.953 364.772 466.151Z" fill="white"/>
<path d="M364.772 483.268C364.772 484.295 363.915 485.151 362.887 485.151C361.859 485.151 361.002 484.295 361.002 483.268C361.002 482.241 361.859 481.385 362.887 481.385C363.915 481.385 364.772 482.241 364.772 483.268Z" fill="white"/>
<path d="M364.772 502.268C364.772 503.295 363.915 504.151 362.887 504.151C361.859 504.151 361.002 503.295 361.002 502.268C361.002 501.241 361.859 500.385 362.887 500.385C363.915 500.385 364.772 501.241 364.772 502.268Z" fill="white"/>
<path d="M304.797 443.557C304.797 443.557 286.633 492.34 285.263 500.385C284.063 508.43 294.344 527.088 299.142 527.772C306.168 528.799 311.822 526.745 318.848 514.764C325.702 502.782 324.503 451.602 324.503 451.602L304.797 443.557Z" fill="url(#paint7_linear)"/>
<path d="M324.674 446.809C324.674 446.809 323.474 505.692 320.904 513.052C316.791 524.863 306.339 528.115 306.339 528.115H317.991C317.991 528.115 327.073 522.124 327.929 504.151C328.444 493.367 326.559 458.962 325.531 447.494C325.188 444.413 324.674 446.809 324.674 446.809Z" fill="#EE4D47" fill-opacity="0.29" style="mix-blend-mode:multiply"/>
<path d="M328.701 441.253L309 433.302L304.892 443.459L324.593 451.41L328.701 441.253Z" fill="white"/>
<path d="M403.155 455.197C403.155 455.197 396.129 488.575 395.615 502.268C395.101 515.962 395.615 527.773 395.615 527.773L400.584 528.115C400.584 528.115 401.784 468.206 403.155 455.197Z" fill="#EE4D47" fill-opacity="0.29" style="mix-blend-mode:multiply"/>
<path d="M343.522 408.981C334.097 408.981 331.013 404.359 329.128 397.341C328.271 393.576 327.929 383.477 327.929 383.134H330.67C330.67 383.305 331.013 393.404 331.87 396.828C333.583 403.503 336.154 406.927 345.407 406.242L345.578 408.981C344.893 408.981 344.207 408.981 343.522 408.981Z" fill="white"/>
<path d="M362.886 315.865C355.346 315.18 338.04 315.693 330.157 330.756C330.157 330.756 332.213 334.351 334.612 331.954C343.18 324.252 355.175 324.081 362.543 324.081C370.083 324.081 382.592 324.081 390.988 331.954C393.558 334.18 395.443 330.756 395.443 330.756C387.732 315.693 370.425 315.18 362.886 315.865Z" fill="white"/>
<path d="M403.496 367.558C403.496 367.558 403.154 357.116 402.982 354.206C402.64 348.558 401.783 339.315 399.898 334.351C393.729 317.405 373.681 314.153 363.228 314.153C352.604 314.153 332.213 317.405 326.044 334.18C324.331 338.972 323.474 347.531 322.96 353.351C322.789 356.774 322.617 367.387 322.617 367.387H325.53C325.53 367.387 325.53 356.774 325.873 353.351C326.216 348.9 327.072 342.396 329.3 336.234C334.441 321.684 353.461 320.144 362.714 320.144C372.139 320.144 391.502 321.684 396.642 336.234C399.041 343.08 399.898 350.098 400.241 354.549C400.412 357.459 400.583 367.558 400.583 367.558H403.496Z" fill="url(#paint8_linear)"/>
<path d="M326.216 365.504H322.446V381.594H326.216V365.504Z" fill="white"/>
<path d="M332.899 384.675H328.615C326.559 384.675 324.846 382.963 324.846 380.909V366.188C324.846 364.134 326.559 362.423 328.615 362.423H332.899C333.413 362.423 333.756 362.765 333.756 363.278V383.648C333.756 384.161 333.413 384.675 332.899 384.675Z" fill="url(#paint9_linear)"/>
<path d="M320.904 382.963H320.733C319.876 382.963 319.19 382.278 319.19 381.422V365.333C319.19 364.477 319.876 363.792 320.733 363.792H320.904C321.761 363.792 322.446 364.477 322.446 365.333V381.422C322.446 382.278 321.761 382.963 320.904 382.963Z" fill="url(#paint10_linear)"/>
<path d="M399.344 381.872H403.113V365.782H399.344V381.872Z" fill="white"/>
<path d="M392.873 385.017H397.157C399.213 385.017 400.926 383.305 400.926 381.251V366.531C400.926 364.477 399.213 362.765 397.157 362.765H392.873C392.359 362.765 392.016 363.107 392.016 363.621V383.99C391.845 384.503 392.359 385.017 392.873 385.017Z" fill="url(#paint11_linear)"/>
<path d="M404.696 383.305H404.868C405.725 383.305 406.41 382.621 406.41 381.765V365.675C406.41 364.819 405.725 364.134 404.868 364.134H404.696C403.84 364.134 403.154 364.819 403.154 365.675V381.765C403.154 382.621 403.84 383.305 404.696 383.305Z" fill="url(#paint12_linear)"/>
<path d="M353.633 407.269C353.633 408.981 351.577 410.521 348.835 410.521C346.265 410.521 344.037 409.152 344.037 407.269C344.037 405.386 346.093 404.017 348.835 404.017C351.405 404.017 353.633 405.386 353.633 407.269Z" fill="url(#paint13_linear)"/>
<path fill-rule="evenodd" clip-rule="evenodd" d="M317.821 396.315L317.821 396.314C319.415 394.822 321.24 393.792 322.994 392.922C326.147 390.883 329.823 388.563 331.186 387.927C333.928 386.558 335.641 388.954 331.7 392.378C330.845 393.121 329.852 393.912 328.823 394.695C330.963 393.876 332.857 393.172 333.756 392.891C336.669 392.035 338.04 394.774 333.413 397.342C331.532 398.386 329.168 399.515 327.026 400.487L327.759 402.819C327.759 402.819 329.816 400.936 330.501 400.423C334.785 397.513 337.012 399.909 335.128 402.477C333.071 405.044 329.987 412.404 331.015 417.539C331.7 420.963 331.186 425.756 330.33 429.521C329.473 433.116 324.161 443.728 324.161 443.728L310.453 438.936C310.453 438.936 313.537 435.683 313.023 427.81C312.871 425.229 311.843 422.513 310.82 419.812C309.537 416.423 308.262 413.056 308.739 410.008C309.596 405.215 316.621 397.513 317.821 396.315L317.821 396.315Z" fill="url(#paint14_linear)"/>
<path opacity="0.3" d="M330.158 416.855C330.501 412.575 330.158 411.72 329.815 409.666C329.472 407.269 329.987 404.188 328.958 401.963C327.759 399.567 325.874 398.197 322.618 398.882C318.334 399.909 316.621 402.134 316.621 402.134C316.621 402.134 320.048 400.765 321.762 400.251C324.332 399.567 326.902 399.738 327.93 402.819C328.444 404.702 328.787 407.269 329.13 409.152C329.301 410.521 330.329 416.512 329.472 416.684C328.616 416.684 326.731 416.17 325.874 413.089C325.703 413.774 325.531 418.395 325.017 418.395C321.933 418.053 321.59 415.657 321.419 413.089C321.419 411.891 321.247 410.179 320.905 407.954C319.705 409.837 316.792 411.548 315.593 412.404C316.964 413.603 319.534 416.512 320.562 417.711C322.447 419.936 324.16 423.359 324.503 426.954C329.13 422.503 326.559 417.882 326.388 416.341C327.588 417.711 329.987 418.738 330.158 416.855Z" fill="#EB5046"/>
<path d="M524.475 416.855C524.475 414.287 522.418 412.404 519.677 412.404H393.046C390.476 412.404 388.248 414.458 388.248 416.855V495.593H524.303V416.855H524.475Z" fill="url(#paint15_linear)"/>
<path d="M393.217 510.484H519.848C522.418 510.484 524.646 508.43 524.646 506.034V495.764H388.59V506.034C388.419 508.43 390.647 510.484 393.217 510.484Z" fill="#CA3F3A"/>
<path d="M476.325 508.601H442.396V524.691H476.325V508.601Z" fill="#CA3F3A"/>
<path d="M480.436 508.601H446.508V524.691H480.436V508.601Z" fill="url(#paint16_linear)"/>
<path d="M474.782 523.151H432.8V527.772H474.782V523.151Z" fill="url(#paint17_linear)"/>
<path d="M488.49 523.151H446.508V527.772H488.49V523.151Z" fill="url(#paint18_linear)"/>
<path d="M531.501 416.855C531.501 414.287 529.444 412.404 526.703 412.404H400.243C397.673 412.404 395.445 414.458 395.445 416.855V495.593H531.501V416.855Z" fill="url(#paint19_linear)"/>
<path d="M400.243 510.484H526.874C529.444 510.484 531.672 508.43 531.672 506.034V495.764H395.616V506.034C395.445 508.43 397.501 510.484 400.243 510.484Z" fill="url(#paint20_linear)"/>
<path opacity="0.2" d="M475.81 446.809C475.81 453.656 470.326 459.134 463.472 459.134C456.618 459.134 451.135 453.656 451.135 446.809C451.135 439.963 456.618 434.485 463.472 434.485C470.326 434.485 475.81 439.963 475.81 446.809Z" fill="white"/>
<path d="M360.83 523.151H331.528V527.601H360.83V523.151Z" fill="url(#paint21_linear)"/>
<path d="M409.495 523.151H347.979V527.601H409.495V523.151Z" fill="url(#paint22_linear)"/>
<g clip-path="url(#clip0)">
<path d="M600.166 493.96H520.166V527.891H600.166V493.96Z" fill="#FCDDD4"/>
<path fill-rule="evenodd" clip-rule="evenodd" d="M560.611 485.115V485.192C561.245 483.423 562.516 480.607 564.654 476.406C568.896 468.365 573.631 462.187 573.631 462.187C573.631 462.187 571.559 469.051 567.318 477.093C563.567 484.29 561.513 487.193 560.611 487.634V488.044C561.698 486.615 564.09 484.164 568.304 480.329C575.308 474.053 582.213 469.542 582.213 469.542C582.213 469.542 577.774 475.328 570.77 481.702C566.663 485.388 563.941 487.599 562.242 488.732C563.972 487.662 566.662 486.196 570.573 484.252C579.254 479.937 587.146 477.289 587.146 477.289C587.146 477.289 581.03 481.702 572.349 486.017C565.738 489.378 562.159 490.805 560.611 491.077V491.372C562.003 490.602 565.564 489.365 572.349 487.488C581.917 484.84 590.302 483.663 590.302 483.663C590.302 483.663 583.002 486.899 573.434 489.547C570.314 490.41 567.824 491.044 565.874 491.486C567.849 491.158 570.401 490.804 573.631 490.43C583.791 489.155 592.274 489.253 592.274 489.253C592.274 489.253 584.284 491.411 574.124 492.587C565.944 493.614 561.92 493.75 560.611 493.457V493.666H559.624V493.526C559.442 493.578 559.188 493.622 558.834 493.666H555.974C553.804 493.568 550.548 493.372 546.011 492.783C535.85 491.509 527.86 489.449 527.86 489.449C527.86 489.449 536.344 489.351 546.504 490.626C549.557 490.98 552.004 491.307 553.931 491.607C552.033 491.169 549.647 490.559 546.701 489.743C537.034 487.096 529.833 483.859 529.833 483.859C529.833 483.859 538.218 485.036 547.786 487.684C554.74 489.608 558.307 490.859 559.624 491.625V491.279C558.132 491.029 554.543 489.571 547.787 486.213C539.106 481.898 532.99 477.485 532.99 477.485C532.99 477.485 540.882 480.133 549.562 484.448C553.229 486.27 555.822 487.673 557.557 488.722C555.829 487.537 553.183 485.373 549.365 481.898C542.361 475.524 537.922 469.738 537.922 469.738C537.922 469.738 544.827 474.151 551.831 480.525C554.841 483.265 556.922 485.298 558.262 486.757C557.111 485.269 555.324 482.327 552.718 477.387C548.477 469.346 546.405 462.481 546.405 462.481C546.405 462.481 551.239 468.659 555.382 476.701C557.772 481.34 559.079 484.315 559.624 486.039V485.117C559.094 483.9 558.736 480.383 558.736 473.366C558.736 464.344 560.117 456.989 560.117 456.989C560.117 456.989 561.498 464.344 561.498 473.366C561.498 480.378 561.14 483.896 560.611 485.115ZM559.624 487.987C559.478 487.975 559.287 487.865 559.045 487.644C559.272 487.913 559.464 488.156 559.624 488.373V487.987ZM559.624 489.848C559.383 489.785 559.071 489.649 558.681 489.431C559.059 489.681 559.372 489.905 559.624 490.102V489.848ZM560.611 489.83C560.882 489.623 561.215 489.39 561.616 489.128C561.203 489.375 560.87 489.535 560.611 489.62V489.83ZM559.624 492.507C559.306 492.529 558.858 492.507 558.262 492.435C558.893 492.596 559.339 492.746 559.624 492.885V492.507ZM560.611 492.728C560.981 492.557 561.569 492.369 562.412 492.165C561.609 492.285 561.017 492.332 560.611 492.317V492.728Z" fill="#F37753"/>
<path d="M554.79 493.666H536.344C539.205 493.47 542.657 493.372 546.307 493.372C549.858 493.372 552.719 493.47 554.79 493.666Z" fill="#F37753"/>
<path d="M565.345 493.666H583.791C580.931 493.47 577.478 493.274 573.828 493.372C570.178 493.47 567.416 493.568 565.345 493.666Z" fill="#F37753"/>
</g>
<path d="M433.166 331.989C433.166 320.944 442.12 311.989 453.166 311.989H565.785C576.83 311.989 585.785 320.944 585.785 331.989V358.602C585.785 369.648 576.83 378.602 565.785 378.602H433.166V331.989Z" fill="#F69477"/>
<circle opacity="0.5" cx="467.737" cy="345.717" r="5.05919" fill="white"/>
<circle opacity="0.5" cx="488.817" cy="345.717" r="5.05919" fill="white"/>
<circle opacity="0.5" cx="509.897" cy="345.717" r="5.05919" fill="white"/>
<circle opacity="0.5" cx="530.977" cy="345.717" r="5.05919" fill="white"/>
<circle opacity="0.5" cx="552.057" cy="345.717" r="5.05919" fill="white"/>
<defs>
<linearGradient id="paint0_linear" x1="316.574" y1="211.056" x2="234.122" y2="361.903" gradientUnits="userSpaceOnUse">
<stop stop-color="#F37753"/>
<stop offset="1" stop-color="white" stop-opacity="0"/>
</linearGradient>
<linearGradient id="paint1_linear" x1="229.688" y1="176.972" x2="277.293" y2="502.95" gradientUnits="userSpaceOnUse">
<stop stop-color="#F7A58D"/>
<stop offset="1" stop-color="#F58A6B"/>
</linearGradient>
<linearGradient id="paint2_linear" x1="377.954" y1="415.486" x2="374.899" y2="381.7" gradientUnits="userSpaceOnUse">
<stop stop-color="#FFB3B6"/>
<stop offset="1" stop-color="#FFC8C1"/>
</linearGradient>
<linearGradient id="paint3_linear" x1="350.546" y1="411.527" x2="379.28" y2="421.874" gradientUnits="userSpaceOnUse">
<stop stop-color="#FFB3B6" stop-opacity="0.31"/>
<stop offset="1" stop-color="#FFC8C1"/>
</linearGradient>
<linearGradient id="paint4_linear" x1="403.529" y1="469.398" x2="397.4" y2="406.197" gradientUnits="userSpaceOnUse">
<stop stop-color="#FFB3B6"/>
<stop offset="1" stop-color="white"/>
</linearGradient>
<linearGradient id="paint5_linear" x1="402.039" y1="402.846" x2="396.155" y2="352.217" gradientUnits="userSpaceOnUse">
<stop stop-color="#FFB3B6"/>
<stop offset="1" stop-color="#FFC8C1"/>
</linearGradient>
<linearGradient id="paint6_linear" x1="363.219" y1="404.631" x2="363.219" y2="530.686" gradientUnits="userSpaceOnUse">
<stop stop-color="#F4A984"/>
<stop offset="1" stop-color="#EE4D47"/>
</linearGradient>
<linearGradient id="paint7_linear" x1="304.875" y1="424.01" x2="304.875" y2="530.316" gradientUnits="userSpaceOnUse">
<stop stop-color="#F4A984"/>
<stop offset="1" stop-color="#EE4D47"/>
</linearGradient>
<linearGradient id="paint8_linear" x1="363.057" y1="301.791" x2="363.057" y2="369.02" gradientUnits="userSpaceOnUse">
<stop stop-color="#F4A984"/>
<stop offset="1" stop-color="#EE4D47"/>
</linearGradient>
<linearGradient id="paint9_linear" x1="329.301" y1="357.272" x2="329.301" y2="385.284" gradientUnits="userSpaceOnUse">
<stop stop-color="#F4A984"/>
<stop offset="1" stop-color="#EE4D47"/>
</linearGradient>
<linearGradient id="paint10_linear" x1="320.818" y1="359.354" x2="320.818" y2="383.488" gradientUnits="userSpaceOnUse">
<stop stop-color="#F4A984"/>
<stop offset="1" stop-color="#EE4D47"/>
</linearGradient>
<linearGradient id="paint11_linear" x1="396.454" y1="357.614" x2="396.454" y2="385.626" gradientUnits="userSpaceOnUse">
<stop stop-color="#F4A984"/>
<stop offset="1" stop-color="#EE4D47"/>
</linearGradient>
<linearGradient id="paint12_linear" x1="404.782" y1="359.697" x2="404.782" y2="383.83" gradientUnits="userSpaceOnUse">
<stop stop-color="#F4A984"/>
<stop offset="1" stop-color="#EE4D47"/>
</linearGradient>
<linearGradient id="paint13_linear" x1="348.835" y1="402.511" x2="348.835" y2="410.699" gradientUnits="userSpaceOnUse">
<stop stop-color="#F4A984"/>
<stop offset="1" stop-color="#EE4D47"/>
</linearGradient>
<linearGradient id="paint14_linear" x1="322.166" y1="441.489" x2="344.666" y2="357.489" gradientUnits="userSpaceOnUse">
<stop stop-color="#FFB3B6"/>
<stop offset="0.239165" stop-color="#FFC5C7"/>
<stop offset="1" stop-color="white"/>
</linearGradient>
<linearGradient id="paint15_linear" x1="437.271" y1="663.253" x2="437.271" y2="178.18" gradientUnits="userSpaceOnUse">
<stop stop-color="#FFEDBA"/>
<stop offset="0.423008" stop-color="#F16D5E"/>
<stop offset="0.651925" stop-color="#EE4D47"/>
</linearGradient>
<linearGradient id="paint16_linear" x1="458.717" y1="557.119" x2="458.717" y2="463.299" gradientUnits="userSpaceOnUse">
<stop stop-color="#FFEDBA"/>
<stop offset="1" stop-color="#EE4D47"/>
</linearGradient>
<linearGradient id="paint17_linear" x1="447.907" y1="545.262" x2="447.907" y2="518.762" gradientUnits="userSpaceOnUse">
<stop stop-color="#FFEDBA"/>
<stop offset="1" stop-color="#EE4D47"/>
</linearGradient>
<linearGradient id="paint18_linear" x1="461.615" y1="537.087" x2="461.615" y2="510.138" gradientUnits="userSpaceOnUse">
<stop stop-color="#FFEDBA"/>
<stop offset="1" stop-color="#EE4D47"/>
</linearGradient>
<linearGradient id="paint19_linear" x1="444.406" y1="550.031" x2="444.406" y2="333.397" gradientUnits="userSpaceOnUse">
<stop stop-color="#FFEDBA"/>
<stop offset="1" stop-color="#EE4D47"/>
</linearGradient>
<linearGradient id="paint20_linear" x1="444.571" y1="540.153" x2="444.571" y2="454.317" gradientUnits="userSpaceOnUse">
<stop stop-color="#FFEDBA"/>
<stop offset="1" stop-color="#EE4D47"/>
</linearGradient>
<linearGradient id="paint21_linear" x1="342.073" y1="544.443" x2="342.073" y2="518.924" gradientUnits="userSpaceOnUse">
<stop stop-color="#FFEDBA"/>
<stop offset="1" stop-color="#EE4D47"/>
</linearGradient>
<linearGradient id="paint22_linear" x1="370.116" y1="523.122" x2="370.116" y2="503.706" gradientUnits="userSpaceOnUse">
<stop stop-color="#FFEDBA"/>
<stop offset="1" stop-color="#EE4D47"/>
</linearGradient>
<clipPath id="clip0">
<rect width="80" height="71" fill="white" transform="translate(520.166 456.989)"/>
</clipPath>
</defs>
</svg>
